<?xml version="1.0" encoding="UTF-8"?>
<svg width="24px" height="24px" viewBox="0 0 24 24" version="1.1" xmlns="http://www.w3.org/2000/svg" xmlns:xlink="http://www.w3.org/1999/xlink">
    <title>02_Common_Tree_1_Main_car_equipment</title>
    <g id="02_Common_Tree_1_Main_car_equipment" stroke="none" stroke-width="1" fill="none" fill-rule="evenodd">
        <g id="tree" fill="#6F7E91">
            <path d="M11.8630007,8.00160217 L12.2389217,9.32086616 C12.3336869,9.653437 12.5882387,9.90218168 12.8998953,10.000628 L8.20907921,10.000628 L6.50218266,11.9993386 L15.8701542,11.9993386 C15.9988717,12.835219 16.6404596,13.5013638 17.4737525,13.6595734 L20.0014038,14.1394798 L20.0014038,16.9251721 C20.0014038,17.5710438 19.6014428,18.0016249 19.0015012,18.0016249 L19.0015012,18.92663 C19.0015012,19.5725017 18.6015401,20.0030828 18.0015985,20.0030828 L17.0016959,20.0030828 C16.4017543,20.0030828 16.0017932,19.5725017 16.0017932,18.92663 L16.0017932,17.9997636 L8.00257208,17.9997636 L8.00257208,18.92663 C8.00257208,19.5725017 7.60261102,20.0030828 7.00266944,20.0030828 L6.00276679,20.0030828 C5.40282521,20.0030828 5.00286415,19.5725017 5.00286415,18.92663 L5.00286415,17.9997636 C4.40292256,17.9997636 4.00296151,17.5691824 4.00296151,16.9233107 L4.00296151,12.4679129 L7.20264997,8.33657547 C7.40263049,8.11325994 7.70260129,8.00160217 8.00257208,8.00160217 L11.8630007,8.00160217 Z M11.0077016,5 L11.5775966,7 L9,7 C8.44771525,7 8,6.55228475 8,6 C8,5.44771525 8.44771525,5 9,5 L11.0077016,5 Z M7.00266944,15.9872733 C7.60261102,15.9872733 8.00257208,15.5875312 8.00257208,14.987918 C8.00257208,14.3883048 7.60261102,13.9885627 7.00266944,13.9885627 C6.40272785,13.9885627 6.00276679,14.3883048 6.00276679,14.987918 C6.00276679,15.5875312 6.40272785,15.9872733 7.00266944,15.9872733 Z M18.7174999,11.9774417 C18.634755,12.4579602 18.1762321,12.7701068 17.6933603,12.6746406 C17.2104885,12.5791743 16.8861216,12.1122464 16.9688665,11.6317278 C17.1025907,10.8551608 16.8509358,10.0499258 16.2734854,9.47247549 C15.6901425,8.88913251 14.874406,8.63847025 14.0914092,8.78113879 C13.6118306,8.86852201 13.1419234,8.54857813 13.0418421,8.06652413 C12.9417608,7.58447014 13.2494041,7.12285007 13.7289826,7.03546685 C15.0837047,6.78862519 16.5006918,7.22404176 17.5113055,8.23465545 C18.5116714,9.23502132 18.9488557,10.6339057 18.7174999,11.9774417 Z M21.5280227,12.471525 C21.4497917,12.9529143 20.9943185,13.2694086 20.5106949,13.1784348 C20.0270713,13.087461 19.6984357,12.6234691 19.7766667,12.1420798 C20.0486169,10.4686534 19.4991276,8.73871472 18.2564008,7.49598794 C17.0034803,6.24306742 15.2555025,5.69516308 13.570762,5.98230543 C13.0900822,6.06423112 12.6236845,5.73908687 12.5290335,5.25607541 C12.4343825,4.77306396 12.7473207,4.31509192 13.2280005,4.23316623 C15.4788639,3.8495355 17.819153,4.58310007 19.4942209,6.2581679 C21.155634,7.91958105 21.8913505,10.2358126 21.5280227,12.471525 Z" id="Color"></path>
        </g>
    </g>
</svg>