<?xml version="1.0" encoding="UTF-8"?>
<svg width="24px" height="24px" viewBox="0 0 24 24" version="1.1" xmlns="http://www.w3.org/2000/svg" xmlns:xlink="http://www.w3.org/1999/xlink">
    <title>01_Common_Btn/1_Common/common_target</title>
    <g id="01_Common_Btn/1_Common/common_target" stroke="none" stroke-width="1" fill="none" fill-rule="evenodd" fill-opacity="0.7">
        <g id="08_Common_info/2_Linear/info_time" transform="translate(4.000000, 4.000000)" fill="#000000" fill-rule="nonzero">
            <path d="M8.5,0 C8.77614237,-5.07265313e-17 9,0.223857625 9,0.5 L9.00055932,1.01644228 C12.7439749,1.26316005 15.7373965,4.2568939 15.9836237,8.00044339 L16.5,8 C16.7761424,8 17,8.22385763 17,8.5 C17,8.77614237 16.7761424,9 16.5,9 L15.9835577,9.00055932 C15.736862,12.7436407 12.7436407,15.736862 9.00055932,15.9835577 L9,16.5 C9,16.7761424 8.77614237,17 8.5,17 C8.22385763,17 8,16.7761424 8,16.5 L8.00044339,15.9836237 C4.2568939,15.7373965 1.26316005,12.7439749 1.01644228,9.00055932 L0.5,9 C0.223857625,9 0,8.77614237 0,8.5 C0,8.22385763 0.223857625,8 0.5,8 L1.01637626,8.00044339 C1.26262547,4.25655965 4.25655965,1.26262547 8.00044339,1.01637626 L8,0.5 C8,0.223857625 8.22385763,5.07265313e-17 8.5,0 Z M9.00062221,2.01908162 L9,3.5 C9,3.77614237 8.77614237,4 8.5,4 C8.22385763,4 8,3.77614237 8,3.5 L8.00037928,2.01900507 C4.81357266,2.26234684 2.26234684,4.81357266 2.01900507,8.00037928 L3.5,8 C3.77614237,8 4,8.22385763 4,8.5 C4,8.77614237 3.77614237,9 3.5,9 L2.01908162,9.00062221 C2.26288136,12.1869618 4.8139065,14.7376786 8.00037928,14.9809949 L8,13.5 C8,13.2238576 8.22385763,13 8.5,13 C8.77614237,13 9,13.2238576 9,13.5 L9.00062221,14.9809184 C12.186628,14.7371442 14.7371442,12.186628 14.9809184,9.00062221 L13.5,9 C13.2238576,9 13,8.77614237 13,8.5 C13,8.22385763 13.2238576,8 13.5,8 L14.9809949,8.00037928 C14.7376786,4.8139065 12.1869618,2.26288136 9.00062221,2.01908162 Z M8.5,6 C9.88071187,6 11,7.11928813 11,8.5 C11,9.88071187 9.88071187,11 8.5,11 C7.11928813,11 6,9.88071187 6,8.5 C6,7.11928813 7.11928813,6 8.5,6 Z" id="形状结合"></path>
        </g>
    </g>
</svg>