<?xml version="1.0" encoding="UTF-8"?>
<svg width="24px" height="24px" viewBox="0 0 24 24" version="1.1" xmlns="http://www.w3.org/2000/svg" xmlns:xlink="http://www.w3.org/1999/xlink">
    <title>01_Common_Btn/2_Infrequently/common_draw_intrusion</title>
    <g id="01_Common_Btn/2_Infrequently/common_draw_intrusion" stroke="none" stroke-width="1" fill="none" fill-rule="evenodd" fill-opacity="0.7">
        <path d="M19,6 C19.552,6 20,6.448 20,7 L20,7 L20,17 C20,17.552 19.552,18 19,18 L19,18 L5,18 C4.448,18 4,17.552 4,17 L4,17 L4,7 C4,6.448 4.448,6 5,6 L5,6 Z M19,7 L5,7 L5,17 L19,17 L19,7 Z M7.0527,12.7236 C6.9287,12.4766 7.0297,12.1766 7.2767,12.0526 L15.2767,8.0526 C15.5227,7.9306 15.8237,8.0286 15.9477,8.2766 C16.0707,8.5236 15.9707,8.8236 15.7237,8.9476 L7.7237,12.9476 C7.4737,13.0716 7.1757,12.9686 7.0527,12.7236 M16.0068,14.582 L15.0068,8.582 C14.9618,8.31 15.1458,8.052 15.4178,8.007 C15.6878,7.959 15.9478,8.145 15.9928,8.418 L16.9928,14.418 C17.0388,14.69 16.8548,14.948 16.5818,14.993 C16.3158,15.04 16.0528,14.858 16.0068,14.582 M16.3916,14.9883 L7.3916,12.9883 C7.1216,12.9283 6.9526,12.6613 7.0116,12.3913 C7.0726,12.1223 7.3426,11.9573 7.6086,12.0113 L16.6086,14.0113 C16.8776,14.0713 17.0476,14.3393 16.9886,14.6083 C16.9306,14.8703 16.6706,15.0483 16.3916,14.9883" id="Color" fill="#000000" fill-rule="nonzero"></path>
    </g>
</svg>