<?xml version="1.0" encoding="UTF-8"?>
<svg width="24px" height="24px" viewBox="0 0 24 24" version="1.1" xmlns="http://www.w3.org/2000/svg" xmlns:xlink="http://www.w3.org/1999/xlink">
    <title>01_Common_Btn/1_Common/common_more_hori_sm</title>
    <g id="01_Common_Btn/1_Common/common_more_hori_sm" stroke="none" stroke-width="1" fill="none" fill-rule="evenodd" fill-opacity="0.7">
        <path d="M12,13 C11.4,13 11,12.6 11,12 C11,11.4 11.4,11 12,11 C12.6,11 13,11.4 13,12 C13,12.6 12.6,13 12,13 Z M8,13 C7.4,13 7,12.6 7,12 C7,11.4 7.4,11 8,11 C8.6,11 9,11.4 9,12 C9,12.6 8.6,13 8,13 Z M16,13 C15.4,13 15,12.6 15,12 C15,11.4 15.4,11 16,11 C16.6,11 17,11.4 17,12 C17,12.6 16.6,13 16,13 Z" id="Color" fill="#000000" fill-rule="nonzero"></path>
    </g>
</svg>