<?xml version="1.0" encoding="UTF-8"?>
<svg width="24px" height="24px" viewBox="0 0 24 24" version="1.1" xmlns="http://www.w3.org/2000/svg" xmlns:xlink="http://www.w3.org/1999/xlink">
    <title>01_Common_Btn/1_Common/common_video_play</title>
    <defs>
        <path d="M17.99989,11.5 C18.0013565,11.4684807 17.9997018,11.4368936 17.99495,11.4057 C17.9866901,11.3708957 17.9746345,11.3371033 17.959,11.30493 C17.9531375,11.2838454 17.9457857,11.2632035 17.937,11.24316 C17.93328,11.23693 17.92681,11.23376 17.92284,11.22772 C17.8804123,11.1764846 17.833313,11.1293049 17.78215,11.08679 C17.77556,11.0824 17.77202,11.07538 17.76515,11.07129 L7.76515,5.07129 C7.75526,5.06537 7.744,5.06537 7.7339,5.06018 C7.67294673,5.03343119 7.60849748,5.01549139 7.54249,5.0069 C7.53059,5.006 7.5204,5 7.50825,5 C7.48849048,5.00271084 7.46892163,5.00666536 7.44966,5.01184 C7.41650234,5.01507773 7.3837603,5.02168176 7.35194,5.03155 C7.29291249,5.05359619 7.23768269,5.08470976 7.18824,5.12377 C7.16203228,5.14696338 7.13839624,5.17290938 7.11774,5.20116 C7.10415564,5.21436468 7.09139495,5.22839107 7.07953,5.24316 C7.07353,5.25305 7.07353,5.26434 7.06836,5.27447 C7.05392603,5.30463784 7.04265588,5.33621971 7.03473,5.36871 C7.02334679,5.40064949 7.01530384,5.43368255 7.01073,5.46728 C7.00992,5.4787 7,5.4884 7,5.5 L7,17.5 C7,17.5116 7.00992,17.5213 7.01072,17.53271 C7.02093292,17.5992124 7.03997429,17.6640546 7.06734,17.72552 C7.07253,17.73565 7.07304,17.74694 7.07903,17.75683 C7.08623,17.76883 7.09986,17.77337 7.10791,17.78454 C7.14267482,17.8334015 7.18614766,17.875437 7.23615,17.90854 C7.25216672,17.9209057 7.26896866,17.9322194 7.28645,17.94241 C7.42793779,18.0215221 7.60092546,18.0189514 7.74,17.93567 C7.748,17.9314 7.75728,17.93347 7.76509,17.92867 L17.76509,11.92867 C17.8298839,11.8886043 17.8844148,11.8339467 17.92433,11.76906 C17.92769,11.76393 17.93379,11.76206 17.93697,11.75679 C17.9457557,11.7367465 17.9531075,11.7161046 17.95897,11.69502 C17.9746045,11.6628467 17.9866601,11.6290543 17.99492,11.59425 C17.9996785,11.5630739 18.0013433,11.5315037 17.99989,11.5 Z" id="path-1"></path>
    </defs>
    <g id="01_Common_Btn/1_Common/common_video_play" stroke="none" stroke-width="1" fill="none" fill-rule="evenodd">
        <mask id="mask-2" fill="white">
            <use xlink:href="#path-1"></use>
        </mask>
        <use id="Color" fill-opacity="0.7" fill="#000000" fill-rule="nonzero" xlink:href="#path-1"></use>
    </g>
</svg>