<?xml version="1.0" encoding="UTF-8"?>
<svg width="24px" height="24px" viewBox="0 0 24 24" version="1.1" xmlns="http://www.w3.org/2000/svg" xmlns:xlink="http://www.w3.org/1999/xlink">
    <title>01_Common_Btn/1_Common/common_setting</title>
    <g id="01_Common_Btn/1_Common/common_setting" stroke="none" stroke-width="1" fill="none" fill-rule="evenodd" fill-opacity="0.7">
        <path d="M7.00143404,10.4158433 C6.89203248,10.7436018 6.81564818,11.0864675 6.7762284,11.440493 C6.7557749,11.6241929 6.74527402,11.8108702 6.74527402,12 C6.74527402,12.1891298 6.7557749,12.3758071 6.77622544,12.5594805 C6.81564818,12.9135325 6.89203248,13.2563982 7.00143404,13.5841567 L5.18309619,14.6339746 L6.18309619,16.3660254 L8.00258357,15.3155439 C8.23486936,15.5775612 8.4942482,15.815012 8.77633,16.0235063 C9.07552594,16.2446489 9.40024937,16.4332086 9.74527402,16.5839563 C10.0627766,16.7226791 10.3974704,16.8293815 10.745274,16.8999819 L10.745274,19 L12.745274,19 L12.745274,16.8999819 C13.0930776,16.8293815 13.4277714,16.7226791 13.7452737,16.5839564 C14.0902987,16.4332086 14.4150221,16.2446489 14.7142064,16.023515 C14.9962998,15.815012 15.2556787,15.5775612 15.4879645,15.3155439 L17.3074518,16.3660254 L18.3074518,14.6339746 L16.489114,13.5841567 C16.5985155,13.2563982 16.6748999,12.9135325 16.7143196,12.559507 C16.7347731,12.3758071 16.745274,12.1891298 16.745274,12 C16.745274,11.8108702 16.7347731,11.6241929 16.7143226,11.4405195 C16.6748999,11.0864675 16.5985155,10.7436018 16.489114,10.4158433 L18.3074518,9.3660254 L17.3074518,7.6339746 L15.4879645,8.68445612 C15.2556787,8.42243884 14.9962998,8.18498798 14.714218,7.97649365 C14.4150221,7.75535113 14.0902987,7.56679136 13.745274,7.41604369 C13.4277714,7.27732093 13.0930776,7.17061852 12.745274,7.10001812 L12.745274,5 L10.745274,5 L10.745274,7.10001812 C10.3974704,7.17061852 10.0627766,7.27732093 9.74527431,7.41604356 C9.40024937,7.56679136 9.07552594,7.75535113 8.77634166,7.97648503 C8.4942482,8.18498798 8.23486936,8.42243884 8.00258357,8.68445612 L6.18309619,7.6339746 L5.18309619,9.3660254 L7.00143404,10.4158433 Z M9.74527402,17.6585886 C9.04304508,17.4103863 8.40081628,17.0351677 7.84619198,16.5605371 L6.25008349,17.4820508 C6.01093718,17.620122 5.70514197,17.5381844 5.56707079,17.2990381 L4.06707079,14.7009619 C3.9289996,14.4618156 4.01093718,14.1560204 4.25008349,14.0179492 L5.84531756,13.0969404 C5.77961378,12.7412979 5.74527402,12.3746592 5.74527402,12 C5.74527402,11.6253408 5.77961378,11.2587021 5.84531756,10.9030596 L4.25008349,9.98205081 C4.01093718,9.84397962 3.9289996,9.53818442 4.06707079,9.29903811 L5.56707079,6.70096189 C5.70514197,6.46181558 6.01093718,6.379878 6.25008349,6.51794919 L7.84619198,7.43946286 C8.40081628,6.96483234 9.04304508,6.58961373 9.74527402,6.34141142 L9.74527402,4.5 C9.74527402,4.22385763 9.96913164,4 10.245274,4 L13.245274,4 C13.5214164,4 13.745274,4.22385763 13.745274,4.5 L13.745274,6.34141142 C14.4475029,6.58961373 15.0897318,6.96483234 15.6443561,7.43946286 L17.2404645,6.51794919 C17.4796109,6.379878 17.7854061,6.46181558 17.9234772,6.70096189 L19.4234772,9.29903811 C19.5615484,9.53818442 19.4796109,9.84397962 19.2404645,9.98205081 L17.6452305,10.9030596 C17.7109343,11.2587021 17.745274,11.6253408 17.745274,12 C17.745274,12.3746592 17.7109343,12.7412979 17.6452305,13.0969404 L19.2404645,14.0179492 C19.4796109,14.1560204 19.5615484,14.4618156 19.4234772,14.7009619 L17.9234772,17.2990381 C17.7854061,17.5381844 17.4796109,17.620122 17.2404645,17.4820508 L15.6443561,16.5605371 C15.0897318,17.0351677 14.4475029,17.4103863 13.745274,17.6585886 L13.745274,19.5 C13.745274,19.7761424 13.5214164,20 13.245274,20 L10.245274,20 C9.96913164,20 9.74527402,19.7761424 9.74527402,19.5 L9.74527402,17.6585886 Z M11.745274,15 C10.0884198,15 8.74527402,13.6568542 8.74527402,12 C8.74527402,10.3431458 10.0884198,9 11.745274,9 C13.4021283,9 14.745274,10.3431458 14.745274,12 C14.745274,13.6568542 13.4021283,15 11.745274,15 Z M11.745274,14 C12.8498435,14 13.745274,13.1045695 13.745274,12 C13.745274,10.8954305 12.8498435,10 11.745274,10 C10.6407045,10 9.74527402,10.8954305 9.74527402,12 C9.74527402,13.1045695 10.6407045,14 11.745274,14 Z" id="Color" fill="#000000" fill-rule="nonzero"></path>
    </g>
</svg>