<?xml version="1.0" encoding="UTF-8"?>
<svg width="24px" height="24px" viewBox="0 0 24 24" version="1.1" xmlns="http://www.w3.org/2000/svg" xmlns:xlink="http://www.w3.org/1999/xlink">
    <title>01_Common_Btn/2_Infrequently/common_drawing_multi_point</title>
    <g id="01_Common_Btn/2_Infrequently/common_drawing_multi_point" stroke="none" stroke-width="1" fill="none" fill-rule="evenodd" fill-opacity="0.7">
        <path d="M18.6529006,7.40911602 C19.395442,7.40911602 19.996547,8.01022099 19.996547,8.75276243 C19.996547,9.49530387 19.395442,10.0964088 18.6529006,10.0964088 C18.5981286,10.0964088 18.5441262,10.0931383 18.4910778,10.0867816 L15.4608894,15.2136664 C15.5072894,15.3498265 15.5324586,15.4958472 15.5324586,15.6477901 C15.5324586,16.3903315 14.9313536,16.9914365 14.1888122,16.9914365 C13.7258157,16.9914365 13.3178082,16.7577335 13.0762231,16.401761 L12.0814917,16.4005525 L12.0814917,15.4005525 L12.8705629,15.4002217 C12.9346207,15.072813 13.1153366,14.7872786 13.3665422,14.5897868 L13.2469448,14.400116 L12.0814917,14.4005525 L12.0814917,13.4005525 L12.6149448,13.400116 L10.4056925,9.90393119 C10.2031863,10.0261233 9.96677042,10.0964088 9.71588398,10.0964088 C9.65071227,10.0964088 9.5866301,10.0917783 9.52394823,10.0828282 L7.47994475,13.400116 L8.08149171,13.4005525 L8.08149171,14.4005525 L6.86394475,14.400116 L6.55133587,14.9090042 C6.64771911,15.0552604 6.71628257,15.2215025 6.74951721,15.4002217 L8.08149171,15.4005525 L8.08149171,16.4005525 L6.54118019,16.401761 C6.29959508,16.7577335 5.89158759,16.9914365 5.42859116,16.9914365 C4.68604972,16.9914365 4.08494475,16.3903315 4.08494475,15.6477901 C4.08494475,14.9052486 4.68604972,14.3041436 5.42859116,14.3041436 C5.53062795,14.3041436 5.62999399,14.3154943 5.72549652,14.337003 L8.6625541,9.58742326 C8.4807642,9.35824757 8.37223757,9.06827284 8.37223757,8.75276243 C8.37223757,8.01022099 8.97334254,7.40911602 9.71588398,7.40911602 C10.4584254,7.40911602 11.0595304,8.01022099 11.0595304,8.75276243 C11.0595304,8.84298444 11.0505256,8.93111837 11.0333881,9.01633969 L14.3747422,14.3168806 C14.5168115,14.3365128 14.6517585,14.3783236 14.77598,14.4387098 L17.6265912,9.62040281 C17.4285861,9.38637331 17.3092541,9.08360693 17.3092541,8.75276243 C17.3092541,8.01022099 17.9103591,7.40911602 18.6529006,7.40911602 Z M11.0814917,15.4005525 L11.0814917,16.4005525 L9.08149171,16.4005525 L9.08149171,15.4005525 L11.0814917,15.4005525 Z M11.0814917,13.4005525 L11.0814917,14.4005525 L9.08149171,14.4005525 L9.08149171,13.4005525 L11.0814917,13.4005525 Z M11.0814917,11.4005525 L11.0814917,12.4005525 L9.08149171,12.4005525 L9.08149171,11.4005525 L11.0814917,11.4005525 Z" id="Color" fill="#000000" fill-rule="nonzero"></path>
    </g>
</svg>