<?xml version="1.0" encoding="UTF-8"?>
<svg width="24px" height="24px" viewBox="0 0 24 24" version="1.1" xmlns="http://www.w3.org/2000/svg" xmlns:xlink="http://www.w3.org/1999/xlink">
    <title>01_Common_Btn/1_Common/common_ranging</title>
    <g id="01_Common_Btn/1_Common/common_ranging" stroke="none" stroke-width="1" fill="none" fill-rule="evenodd" fill-opacity="0.7">
        <g id="编组" transform="translate(12.000000, 12.914214) rotate(-45.000000) translate(-12.000000, -12.914214) translate(3.500000, 8.914214)" fill="#000000" fill-rule="nonzero">
            <path d="M16.2928932,0.207106781 C16.5690356,0.207106781 16.7928932,0.430964406 16.7928932,0.707106781 L16.7928932,0.707106781 L16.7928932,6.70710678 C16.7928932,6.98324916 16.5690356,7.20710678 16.2928932,7.20710678 L16.2928932,7.20710678 L1.29289322,7.20710678 C1.01675084,7.20710678 0.792893219,6.98324916 0.792893219,6.70710678 L0.792893219,6.70710678 L0.792893219,0.707106781 C0.792893219,0.430964406 1.01675084,0.207106781 1.29289322,0.207106781 L1.29289322,0.207106781 Z M3.79289322,1.20710678 L1.79289322,1.20710678 L1.79289322,6.20710678 L15.7928932,6.20710678 L15.7928932,1.20710678 L13.7928932,1.20710678 L13.7928932,3.20710678 C13.7928932,3.48324916 13.5690356,3.70710678 13.2928932,3.70710678 C13.0474333,3.70710678 12.8432848,3.53023162 12.8009489,3.29698241 L12.7928932,3.20710678 L12.7928932,1.20710678 L10.7928932,1.20710678 L10.7928932,3.20710678 C10.7928932,3.48324916 10.5690356,3.70710678 10.2928932,3.70710678 C10.0474333,3.70710678 9.84328485,3.53023162 9.80094889,3.29698241 L9.79289322,3.20710678 L9.79289322,1.20710678 L7.79289322,1.20710678 L7.79289322,3.20710678 C7.79289322,3.48324916 7.56903559,3.70710678 7.29289322,3.70710678 C7.04743333,3.70710678 6.84328485,3.53023162 6.80094889,3.29698241 L6.79289322,3.20710678 L6.79289322,1.20710678 L4.79289322,1.20710678 L4.79289322,3.20710678 C4.79289322,3.48324916 4.56903559,3.70710678 4.29289322,3.70710678 C4.04743333,3.70710678 3.84328485,3.53023162 3.80094889,3.29698241 L3.79289322,3.20710678 L3.79289322,1.20710678 Z" id="形状结合"></path>
        </g>
    </g>
</svg>