<?xml version="1.0" encoding="UTF-8"?>
<svg width="24px" height="24px" viewBox="0 0 24 24" version="1.1" xmlns="http://www.w3.org/2000/svg" xmlns:xlink="http://www.w3.org/1999/xlink">
    <title>01_Common_Btn/1_Common/common_window_popdownwin</title>
    <g id="01_Common_Btn/1_Common/common_window_popdownwin" stroke="none" stroke-width="1" fill="none" fill-rule="evenodd" fill-opacity="0.7">
        <path d="M11.5,5 C11.7761424,5 12,5.22385763 12,5.5 C12,5.77614237 11.7761424,6 11.5,6 L11.5,6 L6,6 L6,18 L18,18 L18,12.5 C18,12.2238576 18.2238576,12 18.5,12 C18.7761424,12 19,12.2238576 19,12.5 L19,12.5 L19,18.5 C19,18.7761424 18.7761424,19 18.5,19 L18.5,19 L5.5,19 C5.22385763,19 5,18.7761424 5,18.5 L5,18.5 L5,5.5 C5,5.22385763 5.22385763,5 5.5,5 L5.5,5 Z M18.8447811,5.14625 C19.0397811,5.34225 19.0397811,5.65825 18.8437811,5.85425 L12.6110706,12.0869605 C12.5329658,12.1650653 12.5329658,12.2916983 12.6110706,12.3698032 L13.9012193,13.6599519 C13.9793242,13.7380567 13.9793242,13.8646897 13.9012193,13.9427946 C13.8637121,13.9803019 13.8128413,14.0013732 13.759798,14.0013732 L10,14.0013732 L10,10.2415753 C10,10.1311183 10.0895431,10.0415753 10.2,10.0415753 C10.2530433,10.0415753 10.3039141,10.0626466 10.3414214,10.1001539 L11.7626493,11.5213818 L18.1377811,5.14625 C18.3327811,4.95125 18.6497811,4.95125 18.8447811,5.14625 Z" id="Color" fill="#000000" fill-rule="nonzero"></path>
    </g>
</svg>