<?xml version="1.0" encoding="UTF-8"?>
<svg width="24px" height="24px" viewBox="0 0 24 24" version="1.1" xmlns="http://www.w3.org/2000/svg" xmlns:xlink="http://www.w3.org/1999/xlink">
    <title>01_Common_Btn/1_Common/common_window_popupwin</title>
    <g id="01_Common_Btn/1_Common/common_window_popupwin" stroke="none" stroke-width="1" fill="none" fill-rule="evenodd" fill-opacity="0.7">
        <path d="M11.5,5 C11.7761424,5 12,5.22385763 12,5.5 C12,5.77614237 11.7761424,6 11.5,6 L11.5,6 L6,6 L6,18 L18,18 L18,12.5 C18,12.2238576 18.2238576,12 18.5,12 C18.7761424,12 19,12.2238576 19,12.5 L19,12.5 L19,18.5 C19,18.7761424 18.7761424,19 18.5,19 L18.5,19 L5.5,19 C5.22385763,19 5,18.7761424 5,18.5 L5,18.5 L5,5.5 C5,5.22385763 5.22385763,5 5.5,5 L5.5,5 Z M18.9909064,5 L18.9909064,8.75979797 C18.9909064,8.87025492 18.9013633,8.95979797 18.7909064,8.95979797 C18.7378631,8.95979797 18.6869923,8.93872661 18.649485,8.90121933 L17.2282571,7.4799914 L10.8531252,13.8551232 C10.6581252,14.0501232 10.3411252,14.0501232 10.1461252,13.8551232 C9.95112524,13.6591232 9.95112524,13.3431232 10.1471252,13.1471232 L16.3798357,6.91441276 C16.4579406,6.8363079 16.4579406,6.7096749 16.3798357,6.63157004 L15.089687,5.34142136 C15.0115822,5.2633165 15.0115822,5.1366835 15.089687,5.05857864 C15.1271943,5.02107137 15.1780651,5 15.2311084,5 L18.9909064,5 Z" id="Color" fill="#000000" fill-rule="nonzero"></path>
    </g>
</svg>