<?xml version="1.0" encoding="UTF-8"?>
<svg width="24px" height="24px" viewBox="0 0 24 24" version="1.1" xmlns="http://www.w3.org/2000/svg" xmlns:xlink="http://www.w3.org/1999/xlink">
    <title>01_Common_Btn/2_Infrequently/common_playback</title>
    <g id="01_Common_Btn/2_Infrequently/common_playback" stroke="none" stroke-width="1" fill="none" fill-rule="evenodd" fill-opacity="0.7">
        <path d="M5.63481278,9.49924076 C7.10046733,6.13088991 10.8323772,4.29078005 14.440934,5.25598536 C17.4528301,6.06264981 19.6513263,8.64886349 19.9625268,11.7513432 C20.2737274,14.8538229 18.6326936,17.8251685 15.8410184,19.213972 C13.0493431,20.6027756 9.68957036,20.1192329 7.40284236,17.9995393 L7.40284236,17.9995393 L7.70293786,16.8795676 C9.67330388,19.0422206 12.8451731,19.6230886 15.4540627,18.2990399 C18.0629524,16.9749911 19.4666832,14.0719407 18.8843723,11.2048299 C18.3020613,8.33771915 15.8770446,6.21228843 12.9583375,6.01089603 C10.0396303,5.80950363 7.34567369,7.58172238 6.37509173,10.3416827 L6.42,10.219 L7.98491192,11.6530617 C8.06633848,11.7276971 8.07184376,11.8542104 7.99720829,11.935637 C7.9593261,11.9769661 7.90583631,12.0004975 7.84977246,12.0004975 L4,12.0004975 L4,8.45512166 C4,8.34466471 4.08954305,8.25512166 4.2,8.25512166 C4.25003578,8.25512166 4.29825413,8.27387679 4.33513946,8.30768583 Z M10.2536433,9.06561085 C10.4104032,8.97685148 10.6027904,8.97927979 10.75726,9.07196751 L10.75726,9.07196751 L15.75708,12.0717275 C15.9076766,12.1620906 15.9998214,12.3248406 15.9998214,12.5004675 C15.9998214,12.6760945 15.9076766,12.8388444 15.75708,12.9292075 L15.75708,12.9292075 L10.75726,15.9289675 C10.6027888,16.0216561 10.4103995,16.0240835 10.253639,15.9353217 C10.0968785,15.8465599 10,15.6803333 10,15.5001875 L10,15.5001875 L10,9.50073751 C10,9.32059346 10.0968835,9.15437023 10.2536433,9.06561085 Z" id="Color" fill="#000000" fill-rule="nonzero"></path>
    </g>
</svg>