<?xml version="1.0" encoding="UTF-8"?>
<svg width="24px" height="24px" viewBox="0 0 24 24" version="1.1" xmlns="http://www.w3.org/2000/svg" xmlns:xlink="http://www.w3.org/1999/xlink">
    <title>03_Common_Arrow/1_Common/common_angles_left</title>
    <g id="03_Common_Arrow/1_Common/common_angles_left" stroke="none" stroke-width="1" fill="none" fill-rule="evenodd" fill-opacity="0.7">
        <path d="M12.207,11.5 L17.85348,5.85352 C18.0453616,5.65772228 18.0437767,5.34392239 17.8499271,5.15007285 C17.6560776,4.95622332 17.3422777,4.95463843 17.14648,5.14652 L11.14648,11.14652 C11.0527004,11.2402604 11.0000122,11.3674233 11.0000122,11.50002 C11.0000122,11.6326167 11.0527004,11.7597796 11.14648,11.85352 L17.14648,17.85352 C17.3422777,18.0454016 17.6560776,18.0438167 17.8499271,17.8499671 C18.0437767,17.6561176 18.0453616,17.3423177 17.85348,17.14652 L12.207,11.5 Z M6.207,11.5 L11.85348,5.85352 C12.0453616,5.65772228 12.0437767,5.34392239 11.8499271,5.15007285 C11.6560776,4.95622332 11.3422777,4.95463843 11.14648,5.14652 L5.14648,11.14652 C5.05270036,11.2402604 5.00001221,11.3674233 5.00001221,11.50002 C5.00001221,11.6326167 5.05270036,11.7597796 5.14648,11.85352 L11.14648,17.85352 C11.3422777,18.0454016 11.6560776,18.0438167 11.8499271,17.8499671 C12.0437767,17.6561176 12.0453616,17.3423177 11.85348,17.14652 L6.207,11.5 Z" id="Color" fill="#000000" fill-rule="nonzero"></path>
    </g>
</svg>