<?xml version="1.0" encoding="UTF-8"?>
<svg width="24px" height="24px" viewBox="0 0 24 24" version="1.1" xmlns="http://www.w3.org/2000/svg" xmlns:xlink="http://www.w3.org/1999/xlink">
    <title>01_Common_Btn/1_Common/common_liveview</title>
    <g id="01_Common_Btn/1_Common/common_liveview" stroke="none" stroke-width="1" fill="none" fill-rule="evenodd" fill-opacity="0.7">
        <path d="M20,8.5 C19.9968901,8.47102547 19.9911088,8.44240039 19.98273,8.41449 C19.9808075,8.38400617 19.9759619,8.35377741 19.96826,8.32422 L19.96271,8.31522 C19.9473287,8.28319489 19.9285007,8.25294272 19.90656,8.225 C19.8920234,8.19863514 19.8751739,8.1736135 19.85621,8.15023 C19.8043103,8.11246608 19.7513941,8.07611934 19.69752,8.04123 C19.68592,8.03623 19.67225,8.03647 19.66023,8.03232 C19.61105,8.01368896 19.5591565,8.00321771 19.5066,8.00132 L19.5,8 C19.4417622,8.01259924 19.3831394,8.02334798 19.32422,8.03223 L16,9.27881 L16,8 C16,7.44771525 15.5522847,7 15,7 L5,7 C4.44771525,7 4,7.44771525 4,8 L4,16 C4,16.5522847 4.44771525,17 5,17 L15,17 C15.5522847,17 16,16.5522847 16,16 L16,14.72119 L19.32422,15.96777 C19.465571,16.0233924 19.6251876,16.00639 19.75165,15.92224 C19.7685246,15.9124149 19.7847331,15.9014878 19.80017,15.88953 C19.8724185,15.836599 19.9287909,15.7648919 19.96317,15.68219 L19.96824,15.67578 C19.9764822,15.6167872 19.9870773,15.5581471 20,15.5 L20,8.5 Z M15.67578,13.53223 C15.616837,13.5234902 15.5582095,13.5127406 15.5,13.5 L15.49182,13.50165 C15.4454043,13.5042401 15.3996022,13.5134914 15.35582,13.52912 C15.2794893,13.5593493 15.2079136,13.6004215 15.1433,13.65107 C15.125085,13.6736291 15.1088514,13.6977185 15.09478,13.72307 C15.0722313,13.7515674 15.0529444,13.7825001 15.03728,13.81529 L15.03173,13.8242 C15.023527,13.8832037 15.0129417,13.9418516 15,14 L15,16 L5,16 L5,8 L15,8 L15,10 C15.003104,10.0290148 15.0088853,10.0576802 15.01727,10.08563 C15.0191925,10.1160744 15.0240381,10.1462633 15.03174,10.17578 L15.03681,10.18219 C15.0712056,10.2648659 15.1275758,10.3365495 15.19981,10.38947 C15.2153042,10.4014506 15.2315546,10.41242 15.24846,10.42231 C15.3749218,10.5064081 15.5345043,10.5233868 15.67583,10.46778 L19,9.22119 L19,14.77881 L15.67578,13.53223 Z" id="Color" fill="#000000" fill-rule="nonzero"></path>
    </g>
</svg>