<?xml version="1.0" encoding="UTF-8"?>
<svg width="24px" height="24px" viewBox="0 0 24 24" version="1.1" xmlns="http://www.w3.org/2000/svg" xmlns:xlink="http://www.w3.org/1999/xlink">
    <title>01_Common_Btn/1_Common/common_talk_on</title>
    <g id="01_Common_Btn/1_Common/common_talk_on" stroke="none" stroke-width="1" fill="none" fill-rule="evenodd" fill-opacity="0.7">
        <path d="M11.5,19 L11.5,16.9753124 C8.97333865,16.7244502 7,14.5926741 7,12 L7,9.5 C7,9.22385763 7.22385763,9 7.5,9 C7.77614237,9 8,9.22385763 8,9.5 L8,12 C8,14.209139 9.790861,16 12,16 C14.209139,16 16,14.209139 16,12 L16,9.5 C16,9.22385763 16.2238576,9 16.5,9 C16.7761424,9 17,9.22385763 17,9.5 L17,12 C17,14.5926741 15.0266613,16.7244502 12.5,16.9753124 L12.5,19 L14.5,19 C14.7761424,19 15,19.2238576 15,19.5 C15,19.7761424 14.7761424,20 14.5,20 L9.5,20 C9.22385763,20 9,19.7761424 9,19.5 C9,19.2238576 9.22385763,19 9.5,19 L11.5,19 Z M12,5 C10.8954305,5 10,5.8954305 10,7 L10,12 C10,13.1045695 10.8954305,14 12,14 C13.1045695,14 14,13.1045695 14,12 L14,7 C14,5.8954305 13.1045695,5 12,5 Z M12,4 C13.6568542,4 15,5.34314575 15,7 L15,12 C15,13.6568542 13.6568542,15 12,15 C10.3431458,15 9,13.6568542 9,12 L9,7 C9,5.34314575 10.3431458,4 12,4 Z" id="Color" fill="#000000" fill-rule="nonzero"></path>
    </g>
</svg>