<?xml version="1.0" encoding="UTF-8"?>
<svg width="24px" height="24px" viewBox="0 0 24 24" version="1.1" xmlns="http://www.w3.org/2000/svg" xmlns:xlink="http://www.w3.org/1999/xlink">
    <title>01_Common_Btn/1_Common/common_windows_maximum</title>
    <g id="01_Common_Btn/1_Common/common_windows_maximum" stroke="none" stroke-width="1" fill="none" fill-rule="evenodd" fill-opacity="0.7">
        <path d="M16.3883046,6.63157004 L15.0981559,5.34142136 C15.0200511,5.2633165 15.0200511,5.1366835 15.0981559,5.05857864 C15.1356632,5.02107137 15.186534,5 15.2395773,5 L18.9993752,5 L18.9993752,5 L18.9993752,8.75979797 C18.9993752,8.87025492 18.9098322,8.95979797 18.7993752,8.95979797 C18.7463319,8.95979797 18.6954612,8.93872661 18.6579539,8.90121933 L17.236726,7.4799914 L17.236726,7.4799914 L14.8615941,9.85512323 C14.6665941,10.0501232 14.3495941,10.0501232 14.1545941,9.85512323 C13.9595941,9.65912323 13.9595941,9.34312323 14.1555941,9.14712323 L16.3883046,6.91441276 C16.4664095,6.8363079 16.4664095,6.7096749 16.3883046,6.63157004 Z M7.46964929,6.7729914 L9.84378111,9.14712323 C10.0397811,9.34312323 10.0397811,9.65912323 9.84478111,9.85512323 C9.64978111,10.0501232 9.33278111,10.0501232 9.13778111,9.85512323 L6.76264929,7.4799914 L5.34142136,8.90121933 C5.2633165,8.97932419 5.1366835,8.97932419 5.05857864,8.90121933 C5.02107137,8.86371206 5,8.81284127 5,8.75979797 L5,5 L5,5 L8.75979797,5 C8.87025492,5 8.95979797,5.08954305 8.95979797,5.2 C8.95979797,5.2530433 8.93872661,5.30391408 8.90121933,5.34142136 L7.46964929,6.7729914 L7.46964929,6.7729914 Z M14.1555941,14.85425 C13.9595941,14.65825 13.9595941,14.34225 14.1545941,14.14625 C14.3495941,13.95125 14.6665941,13.95125 14.8615941,14.14625 L17.236726,16.5213818 L18.6579539,15.1001539 C18.7360587,15.022049 18.8626917,15.022049 18.9407966,15.1001539 C18.9783039,15.1376612 18.9993752,15.188532 18.9993752,15.2415753 L18.9993752,19.0013732 L18.9993752,19.0013732 L15.2395773,19.0013732 C15.1291203,19.0013732 15.0395773,18.9118302 15.0395773,18.8013732 C15.0395773,18.7483299 15.0606486,18.6974591 15.0981559,18.6599519 L16.529726,17.2283818 L16.529726,17.2283818 L14.1555941,14.85425 Z M8.75979797,19.0013732 L5,19.0013732 L5,19.0013732 L5,15.2415753 C5,15.1311183 5.08954305,15.0415753 5.2,15.0415753 C5.2530433,15.0415753 5.30391408,15.0626466 5.34142136,15.1001539 L6.76264929,16.5213818 L6.76264929,16.5213818 L9.13778111,14.14625 C9.33278111,13.95125 9.64978111,13.95125 9.84478111,14.14625 C10.0397811,14.34225 10.0397811,14.65825 9.84378111,14.85425 L7.46964929,17.2283818 L8.90121933,18.6599519 C8.97932419,18.7380567 8.97932419,18.8646897 8.90121933,18.9427946 C8.86371206,18.9803019 8.81284127,19.0013732 8.75979797,19.0013732 Z" id="Color" fill="#000000" fill-rule="nonzero"></path>
    </g>
</svg>