<?xml version="1.0" encoding="UTF-8"?>
<svg width="15px" height="47px" viewBox="0 0 15 47" version="1.1" xmlns="http://www.w3.org/2000/svg" xmlns:xlink="http://www.w3.org/1999/xlink">
    <title>03_Common_Arrow/2_Special/common_arrow_window_unfold_nor_l</title>
    <g id="03_Common_Arrow/2_Special/common_arrow_window_unfold_nor_l" stroke="none" stroke-width="1" fill="none" fill-rule="evenodd">
        <g id="03_Common_Arrow/common_arrow_window_unfold_nor_l" fill-rule="nonzero">
            <path d="M0,2.44249065e-14 C0,1.56992882 1.4046138,3.04281213 2.96164236,3.19282823 L9.38939022,3.61040462 C12.5452618,3.81564822 15,6.43521732 15,9.59775589 L15,36.3985823 C15,39.5611209 12.5452618,42.18069 9.38939022,42.3859336 L2.999,42.801 C1.48387528,42.928441 0.102164633,44.3129259 0.00540477574,45.8308499 L0,46 L0,43.0002388 L0.039,42.993 L0,42.996577 L0,2.44249065e-14 Z" id="Combined-Shape" fill="#808080" opacity="0.75"></path>
            <path d="M8.37132034,19.1286797 L11.9068542,22.6642136 C12.1021164,22.8594757 12.1021164,23.1760582 11.9068542,23.3713203 L8.37132034,26.9068542 C8.1760582,27.1021164 7.85947571,27.1021164 7.66421356,26.9068542 C7.46895142,26.7115921 7.46895142,26.3950096 7.66421356,26.1997475 L10.8461941,23.017767 L7.66421356,19.8357864 C7.46895142,19.6405243 7.46895142,19.3239418 7.66421356,19.1286797 C7.85947571,18.9334175 8.1760582,18.9334175 8.37132034,19.1286797 Z M4.87132034,19.1286797 L8.40685425,22.6642136 C8.6021164,22.8594757 8.6021164,23.1760582 8.40685425,23.3713203 L4.87132034,26.9068542 C4.6760582,27.1021164 4.35947571,27.1021164 4.16421356,26.9068542 C3.96895142,26.7115921 3.96895142,26.3950096 4.16421356,26.1997475 L7.34619408,23.017767 L4.16421356,19.8357864 C3.96895142,19.6405243 3.96895142,19.3239418 4.16421356,19.1286797 C4.35947571,18.9334175 4.6760582,18.9334175 4.87132034,19.1286797 Z" id="Combined-Shape" fill="#FFFFFF" opacity="0.7992234" transform="translate(8.035534, 23.017767) scale(-1, 1) rotate(180.000000) translate(-8.035534, -23.017767) "></path>
        </g>
    </g>
</svg>