<?xml version="1.0" encoding="UTF-8"?>
<svg width="24px" height="24px" viewBox="0 0 24 24" version="1.1" xmlns="http://www.w3.org/2000/svg" xmlns:xlink="http://www.w3.org/1999/xlink">
    <title>01_Common_Btn/1_Common/common_windows_min</title>
    <defs>
        <path d="M16.4788682,8.22813183 L17.9104382,9.65970187 C17.9885431,9.73780673 17.9885431,9.86443973 17.9104382,9.94254458 C17.8729309,9.98005186 17.8220602,10.0011232 17.7690169,10.0011232 L14.0092189,10.0011232 L14.0092189,10.0011232 L14.0092189,6.24132525 C14.0092189,6.1308683 14.0987619,6.04132525 14.2092189,6.04132525 C14.2622622,6.04132525 14.313133,6.06239662 14.3506402,6.0999039 L15.7718682,7.52113183 L15.7718682,7.52113183 L18.147,5.146 C18.342,4.951 18.659,4.951 18.854,5.146 C19.049,5.342 19.049,5.658 18.853,5.854 L16.4788682,8.22813183 Z M7.52200707,8.22813183 L5.14787524,5.854 C4.95187524,5.658 4.95187524,5.342 5.14687524,5.146 C5.34187524,4.951 5.65887524,4.951 5.85387524,5.146 L8.22900707,7.52113183 L9.650235,6.0999039 C9.72833985,6.02179904 9.85497285,6.02179904 9.93307771,6.0999039 C9.97058498,6.13741117 9.99165635,6.18828195 9.99165635,6.24132525 L9.99165635,10.0011232 L9.99165635,10.0011232 L6.23185838,10.0011232 C6.12140143,10.0011232 6.03185838,9.91158018 6.03185838,9.80112323 C6.03185838,9.74807993 6.05292975,9.69720915 6.09043702,9.65970187 L7.52200707,8.22813183 L7.52200707,8.22813183 Z M18.853,18.1468732 C19.049,18.3428732 19.049,18.6588732 18.854,18.8548732 C18.659,19.0498732 18.342,19.0498732 18.147,18.8548732 L15.7718682,16.4797414 L14.3506402,17.9009693 C14.2725354,17.9790742 14.1459024,17.9790742 14.0677975,17.9009693 C14.0302903,17.8634621 14.0092189,17.8125913 14.0092189,17.759548 L14.0092189,13.99975 L14.0092189,13.99975 L17.7690169,13.99975 C17.8794738,13.99975 17.9690169,14.0892931 17.9690169,14.19975 C17.9690169,14.2527933 17.9479455,14.3036641 17.9104382,14.3411714 L16.4788682,15.7727414 L16.4788682,15.7727414 L18.853,18.1468732 Z M6.23185838,13.99975 L9.99165635,13.99975 L9.99165635,13.99975 L9.99165635,17.759548 C9.99165635,17.8700049 9.9021133,17.959548 9.79165635,17.959548 C9.73861305,17.959548 9.68774227,17.9384766 9.650235,17.9009693 L8.22900707,16.4797414 L8.22900707,16.4797414 L5.85387524,18.8548732 C5.65887524,19.0498732 5.34187524,19.0498732 5.14687524,18.8548732 C4.95187524,18.6588732 4.95187524,18.3428732 5.14787524,18.1468732 L7.52200707,15.7727414 L6.09043702,14.3411714 C6.01233216,14.2630665 6.01233216,14.1364335 6.09043702,14.0583286 C6.1279443,14.0208214 6.17881508,13.99975 6.23185838,13.99975 Z" id="path-1"></path>
    </defs>
    <g id="01_Common_Btn/1_Common/common_windows_min" stroke="none" stroke-width="1" fill="none" fill-rule="evenodd">
        <g id="编组">
            <mask id="mask-2" fill="white">
                <use xlink:href="#path-1"></use>
            </mask>
            <use id="Color" fill="#000000" fill-rule="nonzero" opacity="0.699999988" xlink:href="#path-1"></use>
        </g>
    </g>
</svg>