<?xml version="1.0" encoding="UTF-8"?>
<svg width="24px" height="24px" viewBox="0 0 24 24" version="1.1" xmlns="http://www.w3.org/2000/svg" xmlns:xlink="http://www.w3.org/1999/xlink">
    <title>03_Common_Arrow/1_Common/common_angles_right</title>
    <g id="03_Common_Arrow/1_Common/common_angles_right" stroke="none" stroke-width="1" fill="none" fill-rule="evenodd" fill-opacity="0.7">
        <path d="M12.85352,11.14648 L6.85352,5.14648 C6.65772228,4.95459843 6.34392239,4.95618332 6.15007285,5.15003285 C5.95622332,5.34388239 5.95463843,5.65768228 6.14652,5.85348 L11.793,11.5 L6.14648,17.14648 C6.0180514,17.2723399 5.96710624,17.4574739 6.01306155,17.6313207 C6.05901685,17.8051676 6.19479241,17.9409431 6.36863926,17.9868985 C6.54248611,18.0328538 6.72762011,17.9819086 6.85348,17.85348 L12.85348,11.85348 C12.9472649,11.7597449 12.9999678,11.632585 12.9999678,11.4999883 C12.9999678,11.3673916 12.9472943,11.2402257 12.85352,11.14648 Z M18.85352,11.14648 L12.85352,5.14648 C12.6577223,4.95459843 12.3439224,4.95618332 12.1500729,5.15003285 C11.9562233,5.34388239 11.9546384,5.65768228 12.14652,5.85348 L17.793,11.5 L12.14652,17.14648 C12.0180914,17.2723399 11.9671462,17.4574739 12.0131015,17.6313207 C12.0590569,17.8051676 12.1948324,17.9409431 12.3686793,17.9868985 C12.5425261,18.0328538 12.7276601,17.9819086 12.85352,17.85348 L18.85352,11.85348 C18.9472996,11.7597396 18.9999878,11.6325767 18.9999878,11.49998 C18.9999878,11.3673833 18.9472996,11.2402204 18.85352,11.14648 Z" id="Color" fill="#000000" fill-rule="nonzero"></path>
    </g>
</svg>