<?xml version="1.0" encoding="UTF-8"?>
<svg width="24px" height="24px" viewBox="0 0 24 24" version="1.1" xmlns="http://www.w3.org/2000/svg" xmlns:xlink="http://www.w3.org/1999/xlink">
    <title>广播</title>
    <g id="广播" stroke="none" stroke-width="1" fill="none" fill-rule="evenodd" fill-opacity="0.7">
        <path d="M18.919145,5.60633712 C18.9724923,5.73081397 19,5.86482965 19,6.00025642 L19,17.9671784 C19,18.5194631 18.5522847,18.9671784 18,18.9671784 C17.8645732,18.9671784 17.7305575,18.9396706 17.6060807,18.8863234 L12.6060807,16.7434663 C12.3840829,16.6483244 12.2092157,16.4788306 12.1054944,16.271405 L8,15.816 L8,19.0004883 C8,19.552773 7.55228475,20.0004883 7,20.0004883 L6,20.0004883 C5.44771525,20.0004883 5,19.552773 5,19.0004883 L5,9.3787602 C5,8.86921098 5.38313579,8.44114676 5.88956847,8.38487647 L12.1064595,7.69410484 C12.2102987,7.48755568 12.38477,7.31881596 12.6060807,7.22396853 L17.6060807,5.08111139 C18.1137105,4.86355577 18.7015894,5.09870734 18.919145,5.60633712 Z M6,15.594 L6,19.0004883 L7,19.0004883 L7,15.705 L6,15.594 Z M18,6.00025642 L13,8.14311356 L13,15.8243212 L18,17.9671784 L18,6.00025642 Z M12,8.711 L6,9.3787602 L6,14.5886746 L12,15.255 L12,8.711 Z" id="形状结合" fill="#000000" fill-rule="nonzero"></path>
    </g>
</svg>