<?xml version="1.0" encoding="UTF-8"?>
<svg width="24px" height="24px" viewBox="0 0 24 24" version="1.1" xmlns="http://www.w3.org/2000/svg" xmlns:xlink="http://www.w3.org/1999/xlink">
    <title>01_Common_Btn/1_Common/common_alarm_history</title>
    <g id="01_Common_Btn/1_Common/common_alarm_history" stroke="none" stroke-width="1" fill="none" fill-rule="evenodd" fill-opacity="0.7">
        <path d="M12.6713328,19 C13.4441959,19.6253999 14.4283517,20 15.5,20 L4.5,20 C4.224,20 4,19.776 4,19.5 C4,19.224 4.224,19 4.5,19 L12.6713328,19 Z M11.7577745,18 L10,18 L9,18 C8.04,18 7.28,18 7,18 C6,18 6,16.937 6,16.937 C6,16.849 6,16.709 6,16.525 C6,15.336 6,12.5 6,12.5 C6,9.445 8.482,6.969 11.5,6.969 C14.0775005,6.969 16.2640486,8.77496643 16.8474245,11.205203 C16.4973204,11.0954741 16.1288018,11.0273736 15.7476674,11.0067 C15.1305901,9.2406336 13.4522115,7.974 11.5,7.974 C9.031,7.974 7,10.001 7,12.5 L7,17 L9,17 L9,12 L10,12 L10,17 L11.2560586,17 C11.3818968,17.356029 11.5512673,17.6914942 11.7577745,18 Z M12,6 L11,6 L11,4 L12,4 L12,6 Z M8.249,6.464 L7.542,7.171 L6.128,5.757 L6.835,5.05 L8.249,6.464 Z M16.249,5.757 L14.835,7.171 L14.128,6.464 L15.542,5.05 L16.249,5.757 Z M18.4434634,17.3944616 L19.7772824,18.8693151 C20.0618759,19.1702792 20.0486049,19.6449675 19.7476408,19.929561 C19.4466767,20.2141545 18.9719884,20.2008836 18.6873949,19.8999195 L17.3791145,18.4533049 C16.83625,18.7994368 16.191547,19 15.5,19 C13.5670034,19 12,17.4329966 12,15.5 C12,13.5670034 13.5670034,12 15.5,12 C17.4329966,12 19,13.5670034 19,15.5 C19,16.1980754 18.7956322,16.8484181 18.4434634,17.3944616 Z M15.5,18 C16.8807119,18 18,16.8807119 18,15.5 C18,14.1192881 16.8807119,13 15.5,13 C14.1192881,13 13,14.1192881 13,15.5 C13,16.8807119 14.1192881,18 15.5,18 Z" id="Color" fill="#000000" fill-rule="nonzero"></path>
    </g>
</svg>