<?xml version="1.0" encoding="UTF-8"?>
<svg width="24px" height="24px" viewBox="0 0 24 24" version="1.1" xmlns="http://www.w3.org/2000/svg" xmlns:xlink="http://www.w3.org/1999/xlink">
    <title>01_Common_Btn/1_Common/common_location</title>
    <g id="01_Common_Btn/1_Common/common_location" stroke="none" stroke-width="1" fill="none" fill-rule="evenodd" fill-opacity="0.7">
        <path d="M7.55766641,14 C7.74089276,14.3235847 7.94028363,14.656918 8.15583901,15 L6.72075922,15 L5.38742589,19 L18.6125741,19 L17.2792408,15 L15.8441087,15 C16.0596693,14.656918 16.259065,14.3235847 16.4422958,14 L17.6396204,14 C17.8548356,14 18.045905,14.137715 18.113962,14.3418861 L19.7806287,19.3418861 C19.8679526,19.6038578 19.7263726,19.8870178 19.4644009,19.9743416 C19.4134177,19.9913361 19.3600281,20 19.3062871,20 L4.69371294,20 C4.41757057,20 4.19371294,19.7761424 4.19371294,19.5 C4.19371294,19.446259 4.20237688,19.3928694 4.21937129,19.3418861 L5.88603796,14.3418861 C5.95409498,14.137715 6.14516441,14 6.36037961,14 L7.55766641,14 Z M11.9999393,4 C14.7612882,4 17,6.35041978 17,9.25010953 C17,11.1458267 15.3969186,13.9876748 12.1907559,17.7756538 C12.1818165,17.7862154 12.1720154,17.7960164 12.1614537,17.8049556 C12.0560982,17.8941271 11.898403,17.8810073 11.8092315,17.7756517 C8.60305662,13.9876999 7,11.1458351 7,9.25010953 C7,6.35041978 9.23871179,4 11.9999393,4 Z M16,9.25010953 C16,6.89217719 14.1978834,5 11.9999393,5 C9.8021018,5 8,6.89219335 8,9.25010953 C8,10.7314532 9.32324677,13.1727006 11.9999436,16.4421508 C14.6768181,13.1725154 16,10.7313929 16,9.25010953 Z M12.0000485,11 C10.8955659,11 10,10.104499 10,9.00014305 C10,7.89550104 10.8955659,7 12.0000485,7 C13.1048225,7 14,7.89550104 14,9.00014305 C13.9999029,10.1045943 13.1048225,11 12.0000485,11 Z M12.0000485,10 C12.5524076,10 12.9999515,9.55242047 13,9.00014305 C13,8.44766385 12.5524158,8 12.0000485,8 C11.4478159,8 11,8.44782049 11,9.00014305 C11,9.55220163 11.447838,10 12.0000485,10 Z" id="Color" fill="#000000" fill-rule="nonzero"></path>
    </g>
</svg>