<?xml version="1.0" encoding="UTF-8"?>
<svg width="24px" height="24px" viewBox="0 0 24 24" version="1.1" xmlns="http://www.w3.org/2000/svg" xmlns:xlink="http://www.w3.org/1999/xlink">
    <title>01_Common_Btn/1_Common/common_route_playback</title>
    <g id="01_Common_Btn/1_Common/common_route_playback" stroke="none" stroke-width="1" fill="none" fill-rule="evenodd">
        <g id="编组">
            <g id="01_Common_Btn/1_Common/common_map备份-6" transform="translate(4.000000, 4.000000)" fill="#FFFFFE" fill-rule="nonzero">
                <path d="M11.2928932,7.20190296 C13.5020322,7.20190296 15.2928932,8.99276396 15.2928932,11.201903 C15.2928932,13.411042 13.5020322,15.201903 11.2928932,15.201903 C9.08375422,15.201903 7.29289322,13.411042 7.29289322,11.201903 C7.29289322,8.99276396 9.08375422,7.20190296 11.2928932,7.20190296 Z M1.5,12 C2.15321869,12 2.70891488,12.4175435 2.91475048,13.0002925 L6.62619767,13.0006305 C6.76298522,13.3552844 6.939037,13.6904233 7.14902476,14.0007191 L2.91439849,14.000703 C2.70828193,14.5829319 2.1528467,15 1.5,15 C0.671572875,15 0,14.3284271 0,13.5 C0,12.6715729 0.671572875,12 1.5,12 Z M11.2928932,8.20190296 C9.63603897,8.20190296 8.29289322,9.54504871 8.29289322,11.201903 C8.29289322,12.8587572 9.63603897,14.201903 11.2928932,14.201903 C12.9497475,14.201903 14.2928932,12.8587572 14.2928932,11.201903 C14.2928932,9.54504871 12.9497475,8.20190296 11.2928932,8.20190296 Z M1.5,13 C1.22385763,13 1,13.2238576 1,13.5 C1,13.7761424 1.22385763,14 1.5,14 C1.77614237,14 2,13.7761424 2,13.5 C2,13.2238576 1.77614237,13 1.5,13 Z M10.4928932,9.37560638 C10.5323782,9.37560638 10.5709798,9.38729399 10.6038333,9.40919632 L13.0432781,11.0354929 C13.1351839,11.0967634 13.1600186,11.2209373 13.0987482,11.312843 C13.0841012,11.3348135 13.0652486,11.353666 13.0432781,11.368313 L10.6038333,12.9946096 C10.5119275,13.0558801 10.3877537,13.0310453 10.3264832,12.9391396 C10.3045808,12.9062861 10.2928932,12.8676845 10.2928932,12.8281995 L10.2928932,9.57560638 C10.2928932,9.46514943 10.3824363,9.37560638 10.4928932,9.37560638 Z M14.5,0 C15.3284271,0 16,0.671572875 16,1.5 C16,2.32842712 15.3284271,3 14.5,3 C13.8471533,3 13.2917181,2.58293192 13.0856015,2.00070296 L6.5,2 C5.11928813,2 4,3.11928813 4,4.5 C4,5.8254834 5.03153594,6.91003867 6.33562431,6.99468232 L6.5,7 L8.58194804,6.99990721 C8.15667479,7.27484086 7.77580023,7.61257768 7.45244795,7.99999409 L6.5,8 C4.56700338,8 3,6.43299662 3,4.5 C3,2.6314366 4.4642776,1.10487355 6.3079648,1.00517886 L6.5,1 L13.0852495,1.00029246 C13.2910851,0.417543508 13.8467813,0 14.5,0 Z M14.5,1 C14.2238576,1 14,1.22385763 14,1.5 C14,1.77614237 14.2238576,2 14.5,2 C14.7761424,2 15,1.77614237 15,1.5 C15,1.22385763 14.7761424,1 14.5,1 Z" id="形状结合"></path>
            </g>
            <g id="01_Common_Btn/2_Infrequently/common_play_plan" transform="translate(11.292893, 11.201903)"></g>
        </g>
    </g>
</svg>