<?xml version="1.0" encoding="UTF-8"?>
<svg width="22px" height="30px" viewBox="0 0 22 30" version="1.1" xmlns="http://www.w3.org/2000/svg" xmlns:xlink="http://www.w3.org/1999/xlink">
    <title>轨迹-终点</title>
    <g id="轨迹-终点" stroke="none" stroke-width="1" fill="none" fill-rule="evenodd">
        <g id="12_Business/03_Map/map_trajectory_head-Copy-2" transform="translate(11.000000, 14.000000) rotate(90.000000) translate(-11.000000, -14.000000) translate(-1.500000, 4.500000)">
            <g id="13_Business/06_Map/map_trajectory_head" transform="translate(0.000000, -0.000000)">
                <path d="M9.5,-0.5 C12.8701446,-0.5 18.1768832,2.63448705 25.3611167,9.21939253 C25.6456972,9.48023259 25.9246282,9.73860825 26.1968273,9.99545583 C25.9114381,10.2370539 25.6202403,10.4808345 25.3232165,10.7267909 C18.1561498,16.6616206 12.8661658,19.5 9.5,19.5 C6.78743949,19.5 4.33069,18.3790338 2.55272806,16.5636698 C0.782222574,14.755919 -0.314572155,12.2590039 -0.314572155,9.5 C-0.314572155,6.74099611 0.782222574,4.24408095 2.55272806,2.43633021 C4.33069,0.620966154 6.78743949,-0.5 9.5,-0.5 Z" id="Combined-Shape" stroke="#FFFFFF" stroke-width="2" fill="#2BA9F3"></path>
                <path d="M9.5,13.5 C11.709139,13.5 13.5,11.709139 13.5,9.5 C13.5,7.290861 11.709139,5.5 9.5,5.5 C7.290861,5.5 5.5,7.290861 5.5,9.5 C5.5,11.709139 7.290861,13.5 9.5,13.5 Z" id="Oval" fill="#FFFFFF"></path>
            </g>
        </g>
    </g>
</svg>