<?xml version="1.0" encoding="UTF-8"?>
<svg width="24px" height="24px" viewBox="0 0 24 24" version="1.1" xmlns="http://www.w3.org/2000/svg" xmlns:xlink="http://www.w3.org/1999/xlink">
    <title>02_Common_Tree/1_Main/tree_main_site</title>
    <g id="02_Common_Tree/1_Main/tree_main_site" stroke="none" stroke-width="1" fill="none" fill-rule="evenodd">
        <path d="M3,12.4999834 C3,17.1941384 6.80518216,21.0013588 11.5006794,21.0013588 C16.1948344,21.0013588 20,17.1941384 20,12.4999834 C20,7.80516559 16.1948344,4 11.5006794,4 C6.80518216,4 3,7.80516559 3,12.4999834 Z M16.0931376,7.46732129 C15.9982226,7.53309727 15.9358101,7.619218 15.8164979,7.65244234 C15.7093597,7.68161413 15.5940671,7.65516592 15.4896197,7.69109741 C15.1058254,7.82197665 15.1668433,8.63977095 14.6623585,8.51635693 C14.4250138,8.45940797 14.258203,8.1786665 14.1401869,7.9969253 C14.0344433,7.83552889 13.8431532,7.70194248 13.9720144,7.5025801 C13.91372,7.51614875 13.8513239,7.49987293 13.7930296,7.51071801 C13.8743759,7.33306219 14.1442559,7.34797622 14.1890308,7.25778653 C14.3015833,7.03128683 13.8811848,7.00756221 13.7618233,6.97637236 C13.9055985,6.82311386 14.0995302,7.07066385 14.1198585,6.99264819 C14.1401869,6.91463252 13.6126174,6.84413133 13.5298765,6.82311386 C13.5014102,6.81632134 13.4405232,6.49285582 13.3305305,6.45559536 C13.3047878,6.55528476 13.1487893,6.70106162 13.0280825,6.65766491 C12.9155299,6.61764804 12.9616338,6.43185431 12.7920831,6.44947551 C12.6700473,6.73292415 13.0484437,6.64951059 13.0836697,6.82311386 C13.1243592,7.02044177 12.9412562,6.93702819 12.8693932,6.93295923 C12.8531338,6.93295923 12.7229273,6.79664924 12.7161347,6.8997349 C12.706635,7.02178714 12.923635,6.97432147 12.9399108,7.09706281 C12.6863231,7.10790789 12.5574619,7.01637281 12.3499452,6.87870103 C12.1099261,6.71866641 11.9864957,6.73290774 11.6908566,6.73290776 C11.7789626,6.69695986 11.901064,6.67051165 11.9769795,6.61220089 C12.0176691,6.58032194 12.1790819,6.42301089 12.189927,6.38706299 C12.2346691,6.23585537 12.1885816,6.24806225 12.0420828,6.14838927 C11.9146162,6.06090674 11.7573052,5.9022339 11.6013067,5.87035495 C11.0357876,5.75780242 11.4263909,6.38164866 10.9977888,6.4677694 C10.8974432,6.46370046 10.7116494,6.43995941 10.6478915,6.49285582 C10.6031658,6.52878731 10.5990969,6.67730417 10.5489076,6.73154596 C10.4594071,6.82715 10.3251315,6.84546029 10.2166151,6.91463252 C10.1135787,6.98313207 9.88301007,7.15537355 9.82197573,7.27334044 C9.59413067,7.70666773 10.3305623,7.83958144 10.609942,7.96637533 C10.7360632,8.0247189 11.1063217,8.10201263 11.1741157,8.19828936 C11.2677345,8.32578875 11.095493,8.4464792 11.2880628,8.5366853 C11.3490807,8.56449529 11.4752184,8.56990962 11.5281148,8.51159888 C11.6148918,8.41461665 11.4941849,8.39225381 11.4725112,8.28104665 C11.4345124,8.06471936 11.4995993,8.15084009 11.6081321,8.07015008 C11.8278392,7.9080974 11.7776336,7.89790861 11.6989781,7.63818459 C11.6610121,7.51613234 11.5226676,7.17844191 11.6447527,7.08958119 C11.8047709,6.97294328 12.1465467,7.15264999 12.2685989,7.16756402 C12.4096341,7.18587432 12.492375,7.38321863 12.5696852,7.46321954 C12.6212362,7.51747773 12.7134112,7.63139206 12.802961,7.61918519 C12.9467198,7.59952952 12.8870473,7.4747537 12.9697881,7.41644296 C13.1921696,7.26182268 13.2504968,7.47204655 13.338652,7.6815813 C13.4227383,7.87890921 13.5013938,7.9507886 13.6505834,8.07758249 C13.7197556,8.13727143 14.0221872,8.3468062 13.9937209,8.47565097 C13.9733433,8.56311709 13.8038419,8.74823813 13.8486003,8.70618679 C14.005895,8.56175531 14.0303251,8.66073919 14.1265854,8.77196277 C14.1523774,8.80042905 14.3924457,9.1462738 14.3069812,9.12863619 C14.0276015,9.07303261 13.7604287,9.08117052 13.5298765,9.23306724 C13.3955846,9.32122246 13.2694798,9.43987843 13.1094616,9.49820558 C13.072841,9.51177424 12.7907213,9.53956782 12.8232894,9.49074036 C12.8721332,9.42022275 13.0389112,9.37410246 13.1053926,9.2981541 C12.9222733,9.22289484 12.7703929,9.38970559 12.6252395,9.48665501 C12.4720303,9.55922351 12.436755,9.69348261 12.3065485,9.81351677 C12.2495995,9.8643787 12.1424613,9.87320571 12.0868577,9.94101616 C12.0325831,10.0061194 12.0258234,10.1105505 11.974256,10.1729302 C11.9376846,10.2156378 11.846773,10.189206 11.8088234,10.2563273 C11.7586178,10.3424481 11.8535983,10.4231381 11.8318754,10.4841724 C11.7952548,10.5981196 11.579633,10.6923618 11.4982375,10.7744136 C11.5091154,10.7628794 11.519944,10.7520507 11.5307727,10.7411893 C11.4480318,10.8286718 11.3436336,10.8924133 11.2785303,10.9920863 C11.308342,11.1338106 11.4019279,11.4728628 11.3748399,11.5508457 C11.2893754,11.805828 11.1225482,11.4118449 11.0547706,11.3087593 C10.8215112,10.9575002 10.3563214,11.1921378 10.0389593,11.2212767 C9.63209664,11.2592591 9.23335547,11.786845 9.48561427,12.2140525 C9.60632112,12.420191 9.80702889,12.5002247 10.0389593,12.4520535 C10.2464596,12.4100022 10.3088229,12.1211556 10.5027874,12.1157085 C10.862168,12.1062088 10.5122706,12.4656222 10.4810644,12.5978632 C10.4525981,12.7198991 10.5258393,12.7321223 10.6506151,12.7633122 C10.7442011,12.7836405 10.8757366,12.7226226 10.9557375,12.775519 C11.0073214,12.808727 11.0045814,12.9918463 11.0737536,12.934881 C10.9367545,13.0487953 10.9693061,13.3200371 11.1103742,13.4170029 C11.2677016,13.5255193 11.4507882,13.4251408 11.6148754,13.4671921 C11.924116,13.5445187 11.7749428,13.4434839 12.0475136,13.2793475 C12.2306165,13.1688459 12.26179,13.300365 12.3865658,13.300365 C12.4706521,13.300365 12.5249103,13.1783292 12.6686691,13.2142606 C12.7839452,13.243416 12.8300655,13.3322603 12.9683771,13.3532942 C13.0253753,13.3613993 13.0836532,13.3322768 13.1379279,13.3376911 C13.3942392,13.3654683 13.5922234,13.5296047 13.7929968,13.6781051 C13.9598075,13.8001409 14.0709819,13.7750545 14.2649463,13.8306581 C14.4073597,13.8713476 14.6691018,14.0781916 14.6555332,14.258571 C14.6528588,14.2904172 14.7114246,14.3557534 14.8264129,14.5250876 C14.8759459,14.3489723 15.063774,14.5922089 15.2414299,14.6640719 C15.393343,14.7251062 15.5777585,14.7291752 15.7391549,14.7671412 C15.8761704,14.8003655 16.1772074,14.8919006 16.2789313,15.0044695 C16.4009671,15.1394506 16.3168809,15.3570904 16.2260349,15.4906768 C16.108068,15.6669873 15.930363,15.7334851 15.857171,15.9402963 C15.7988274,16.1043835 15.8422242,16.2698325 15.8083271,16.4502119 C15.7635522,16.6956945 15.7283098,16.6095738 15.569637,16.7601087 C15.4380523,16.8862627 15.5682424,16.8638507 15.3865176,16.9445571 C15.2047929,17.0252635 15.0447746,17.0015224 14.9186534,17.2002285 C14.8779475,17.2361764 14.8521556,17.3887294 14.8264129,17.4389187 C14.762655,17.5670743 14.6758944,17.6470917 14.5755158,17.7528845 C14.5361717,17.7928849 14.182189,18.2764015 14.163206,18.2377464 C14.1360851,18.1875407 13.856689,18.2885919 13.8431204,18.2167289 C13.8539983,18.2777633 13.840446,18.2567294 13.9096183,18.2913155 C13.8458604,18.6886785 13.6776879,18.748351 13.2884628,18.75242 C13.320998,18.9429389 13.146033,18.9056785 13.0660156,19.0080422 C13.01855,19.0677312 12.9941527,19.2359037 12.9629628,19.3139029 C12.9426344,19.362714 12.7893759,19.5580074 12.7893759,19.5973516 C12.7893759,19.6319377 12.840927,19.6848177 12.8897052,19.7343178 C12.6144109,19.7885924 12.3336858,19.8278874 12.0488918,19.8496104 C12.1017718,19.7831617 12.1139951,19.7248346 11.9444443,19.7166638 C11.9905646,19.5932662 12.0977028,19.5220759 12.1424613,19.402698 C12.1641351,19.3457491 12.1465303,19.3233862 12.1641351,19.2677662 C12.2265476,19.0751636 12.1993939,19.1484212 12.1641351,18.9971971 C12.0827724,18.6459216 12.1939795,18.5503176 12.2888945,18.2288866 C12.3878948,17.8986614 12.3783951,17.4694194 12.440824,17.1141078 C12.4706356,16.9432117 12.5194795,16.5892454 12.461136,16.4265036 C12.3946873,16.2461242 12.10041,16.1030381 11.9674799,15.9809695 C11.7762554,15.8073826 11.6758933,15.619538 11.5335127,15.4059507 C11.4629787,15.2974343 11.3815996,15.1902797 11.3246506,15.0723128 C11.2052891,14.8193649 11.3246506,14.9698998 11.344979,14.8213994 C11.363962,14.6769515 11.3287196,14.5474504 11.3856685,14.3962264 C11.4480318,14.2293993 11.6053757,14.1236228 11.6582721,13.9561394 C11.7043924,13.8062608 11.6704462,13.6170872 11.5158587,13.5668979 C11.4290488,13.5377262 11.3341175,13.602813 11.2473077,13.5892936 C11.1266008,13.5696215 10.9909799,13.4794318 10.896065,13.4075196 C10.7644802,13.3071903 10.7143238,13.143743 10.5746503,13.0474663 C10.4566342,12.9681381 10.372548,13.0156038 10.2464268,12.9796559 C10.1162202,12.9410008 10.0348411,12.778259 9.92771934,12.7280862 C9.77039189,12.6521214 9.6795295,12.7599323 9.51270234,12.7382421 C9.37030533,12.7199319 9.15195996,12.561259 9.01904624,12.5015865 C8.74778806,12.3808796 8.5823391,12.2466205 8.47383911,11.9712934 C8.38163135,11.7353268 8.24599404,11.6254486 8.08732121,11.4294825 C7.9259412,11.2294474 7.94081676,11.1322144 7.69262693,11.0793344 C7.66278245,11.0718855 7.55975168,11.2531721 7.39971706,10.9893955 C7.33869915,10.8897061 7.3508896,10.8239466 7.25054393,10.7296715 C7.15559619,10.6381364 7.02812961,10.5920161 6.93319825,10.5065681 C6.58464633,10.1926023 6.52090483,9.77420542 6.5602326,9.32870408 C6.57380125,9.18289439 6.62533588,9.06627289 6.60228394,8.92725574 C6.58466274,8.81063425 6.51414512,8.7149974 6.43004246,8.62820396 C6.40293798,8.58547993 6.33240395,8.47697993 6.32835139,8.47020382 C6.24969587,8.33796278 6.18866155,8.20913442 6.06250755,8.10199623 C5.99062815,8.03960011 5.80347263,7.89516863 5.62852397,7.77309998 C6.41783558,6.78985672 7.44856092,6.01068468 8.63256117,5.52585557 C8.64068267,5.58552811 8.66781997,5.64585694 8.70444056,5.70216602 C8.80344087,5.8465975 8.89566503,5.83575242 9.08554413,5.87440749 C9.06519936,6.09547644 9.54123426,6.00528675 9.70669962,6.08123511 C9.52497485,6.19244227 9.63075126,6.45554614 9.80840708,6.24125332 C9.95487304,6.06495928 9.77314828,5.9374763 9.58869992,5.83440705 C9.77585545,5.60249304 9.88976978,5.58145916 10.0647348,5.84390674 C10.0932175,5.68183765 10.224753,5.74692451 10.3617521,5.75778601 C10.3007342,5.71913092 10.2369763,5.68454482 10.1772874,5.69133734 C10.3156319,5.46890661 10.2274766,5.41804468 10.426839,5.34549259 C10.5855118,5.28854363 11.0384784,5.34142364 11.094082,5.1929396 C10.7767363,5.25395751 10.3956328,5.26887155 10.1094769,5.41197406 C9.98470111,5.47502646 9.83959693,5.67033628 9.71618291,5.54421509 C9.59004531,5.41197406 9.8056835,5.20243929 9.91689066,5.1386978 C10.4001527,5.02947406 10.9206623,4.97461037 11.4426175,4.97461037 C11.7871005,4.97461037 12.1234619,4.99971345 12.4557216,5.04580094 C12.3404455,5.10685168 12.851772,5.20787003 12.3418237,5.20787003 C11.8318754,5.20787003 12.5357553,5.72457807 12.6469625,5.38552585 C12.5696688,5.37331899 12.4923586,5.36247391 12.4136867,5.34959435 C12.5628595,5.25241849 12.7237215,5.17449575 12.8924452,5.11768034 C14.4303953,5.42214644 15.7988275,6.20266387 16.8403979,7.29847607 C16.5285158,7.30661398 16.3264134,7.30661398 16.0931376,7.46732129 Z" id="Color" fill="#6F7E91"></path>
    </g>
</svg>